<svg width="17" height="20" viewBox="0 0 17 20" fill="none" xmlns="http://www.w3.org/2000/svg">
<path d="M15.5833 8.08325C15.5833 13.9166 8.08331 18.9166 8.08331 18.9166C8.08331 18.9166 0.583313 13.9166 0.583313 8.08325C0.583313 6.09413 1.37349 4.18647 2.78001 2.77995C4.18653 1.37343 6.09419 0.583252 8.08331 0.583252C10.0724 0.583252 11.9801 1.37343 13.3866 2.77995C14.7931 4.18647 15.5833 6.09413 15.5833 8.08325Z" stroke="#F9F9F9" stroke-width="1.16667"/>
<path d="M8.08331 10.5833C9.46402 10.5833 10.5833 9.46396 10.5833 8.08325C10.5833 6.70254 9.46402 5.58325 8.08331 5.58325C6.7026 5.58325 5.58331 6.70254 5.58331 8.08325C5.58331 9.46396 6.7026 10.5833 8.08331 10.5833Z" stroke="#F9F9F9" stroke-width="1.16667"/>
</svg>
