<svg width="903" height="1141" viewBox="0 0 903 1141" fill="none" xmlns="http://www.w3.org/2000/svg">
<path d="M869.78 93.559H687.426L660.224 29.577C652.597 11.61 635.052 0 615.525 0H287.441C267.913 0 250.368 11.609 242.743 29.572L215.54 93.558H33.1849C14.8869 93.558 0 108.444 0 126.742V240.938C0 259.236 14.8869 274.123 33.1849 274.123H44.3639L98.281 1101.98C99.681 1123.41 117.6 1140.2 139.075 1140.2H763.889C785.364 1140.2 803.283 1123.41 804.683 1101.98L858.6 274.123H869.779C888.077 274.123 902.964 259.236 902.964 240.938V126.743C902.964 108.445 888.077 93.559 869.78 93.559ZM258.241 36.156C263.221 24.421 274.683 16.838 287.441 16.838H615.524C628.281 16.838 639.743 24.421 644.725 36.16L669.128 93.558H233.836L258.241 36.156ZM787.88 1100.88C787.057 1113.49 776.519 1123.36 763.889 1123.36H139.075C126.445 1123.36 115.907 1113.49 115.084 1100.88L61.2379 274.122H841.727L787.88 1100.88ZM886.126 240.938C886.126 249.952 878.793 257.285 869.779 257.285H33.183C24.169 257.285 16.8359 249.952 16.8359 240.938V126.743C16.8359 117.73 24.169 110.397 33.183 110.397H221.044C221.076 110.397 221.107 110.397 221.139 110.397H681.839C681.846 110.397 681.852 110.398 681.859 110.398C681.869 110.398 681.879 110.397 681.889 110.397H869.779C878.793 110.397 886.126 117.73 886.126 126.743V240.938Z" fill="#191C1F"/>
<path d="M451.482 1046.31C477.68 1046.31 498.995 1025 498.995 998.796V397.353C498.995 371.154 477.681 349.84 451.482 349.84C425.283 349.84 403.969 371.154 403.969 397.353V998.796C403.969 1025 425.284 1046.31 451.482 1046.31ZM420.807 397.353C420.807 380.439 434.568 366.678 451.482 366.678C468.396 366.678 482.157 380.439 482.157 397.353V998.796C482.157 1015.71 468.396 1029.47 451.482 1029.47C434.568 1029.47 420.807 1015.71 420.807 998.796V397.353Z" fill="#191C1F"/>
<path d="M227.756 1001.1C229.264 1026.29 250.247 1045.78 275.165 1045.78C276.111 1045.78 277.063 1045.75 278.019 1045.69H278.022C304.169 1044.13 324.174 1021.58 322.618 995.428L286.759 395.053C285.259 369.996 264.436 350.368 239.355 350.368C238.447 350.368 237.486 350.398 236.493 350.456C223.825 351.214 212.21 356.86 203.788 366.355C195.366 375.849 191.146 388.055 191.904 400.722L227.756 1001.1ZM216.384 377.529C221.822 371.4 229.32 367.755 237.494 367.265C238.152 367.226 238.778 367.206 239.354 367.206C255.542 367.206 268.981 379.88 269.95 396.058L305.809 996.431C306.815 1013.32 293.898 1027.88 277.016 1028.89C260.147 1029.91 245.575 1016.97 244.564 1000.09L208.711 399.718C208.222 391.539 210.948 383.659 216.384 377.529Z" fill="#191C1F"/>
<path d="M624.941 1045.69H624.944C625.901 1045.75 626.851 1045.78 627.798 1045.78C652.714 1045.78 673.699 1026.29 675.207 1001.1L711.06 400.723C711.818 388.055 707.598 375.849 699.176 366.355C690.754 356.86 679.139 351.214 666.467 350.456C665.478 350.397 664.517 350.368 663.609 350.368C638.528 350.368 617.705 369.995 616.205 395.054L580.346 995.43C578.788 1021.58 598.793 1044.13 624.941 1045.69ZM597.154 996.432L633.013 396.059C633.982 379.88 647.421 367.206 663.609 367.206C664.185 367.206 664.811 367.226 665.465 367.265C673.644 367.754 681.142 371.399 686.579 377.529C692.016 383.659 694.741 391.539 694.251 399.718L658.398 1000.09C657.387 1016.97 642.824 1029.88 625.946 1028.88C609.065 1027.87 596.148 1013.32 597.154 996.432Z" fill="#191C1F"/>
</svg>
